<svg viewBox="0 0 960 520" xmlns="http://www.w3.org/2000/svg" font-family="'Hanken Grotesk',system-ui,sans-serif">
  <defs>
    <marker id="ah" markerWidth="10" markerHeight="10" refX="7" refY="3" orient="auto"><path d="M0,0 L7,3 L0,6 Z" fill="#9C7A3C"/></marker>
    <marker id="ahn" markerWidth="10" markerHeight="10" refX="7" refY="3" orient="auto"><path d="M0,0 L7,3 L0,6 Z" fill="#1B2A4A"/></marker>
  </defs>
  <rect x="70" y="80" width="250" height="96" rx="8" fill="#1B2A4A"/>
  <text x="195" y="122" text-anchor="middle" fill="#fff" font-size="20" font-weight="700">LA TUA AZIENDA</text>
  <text x="195" y="148" text-anchor="middle" fill="#BB9A5C" font-size="13" letter-spacing="1">cedente del credito</text>
  <rect x="640" y="80" width="250" height="96" rx="8" fill="#fff" stroke="#1B2A4A" stroke-width="1.5"/>
  <text x="765" y="122" text-anchor="middle" fill="#1B2A4A" font-size="20" font-weight="700">IL TUO CLIENTE</text>
  <text x="765" y="148" text-anchor="middle" fill="#5C6068" font-size="13" letter-spacing="1">debitore</text>
  <rect x="355" y="376" width="250" height="100" rx="8" fill="#9C7A3C"/>
  <text x="480" y="416" text-anchor="middle" fill="#fff" font-size="18" font-weight="700">PIATTAFORMA</text>
  <text x="480" y="442" text-anchor="middle" fill="#fff" font-size="13" opacity=".9">+ investitori autorizzati</text>
  <line x1="320" y1="116" x2="632" y2="116" stroke="#9C7A3C" stroke-width="2" stroke-dasharray="3 5" marker-end="url(#ah)"/>
  <text x="476" y="104" text-anchor="middle" fill="#5C6068" font-size="13.5">Emetti la fattura · pagamento a 60–90 gg</text>
  <path d="M210 178 L412 372" fill="none" stroke="#1B2A4A" stroke-width="2" marker-end="url(#ahn)"/>
  <circle cx="300" cy="262" r="13" fill="#1B2A4A"/><text x="300" y="267" text-anchor="middle" fill="#fff" font-size="14" font-weight="700">1</text>
  <text x="92" y="318" fill="#1B2A4A" font-size="14" font-weight="600">Cedi la fattura</text>
  <path d="M430 372 L252 182" fill="none" stroke="#9C7A3C" stroke-width="2.4" marker-end="url(#ah)"/>
  <circle cx="372" cy="292" r="13" fill="#9C7A3C"/><text x="372" y="297" text-anchor="middle" fill="#fff" font-size="14" font-weight="700">2</text>
  <text x="398" y="258" fill="#9C7A3C" font-size="14" font-weight="700">Anticipo fino al 90%</text>
  <text x="398" y="277" fill="#9C7A3C" font-size="12.5">in 48–72 ore</text>
  <path d="M756 178 L576 372" fill="none" stroke="#1B2A4A" stroke-width="2" marker-end="url(#ahn)"/>
  <circle cx="690" cy="285" r="13" fill="#1B2A4A"/><text x="690" y="290" text-anchor="middle" fill="#fff" font-size="14" font-weight="700">3</text>
  <text x="612" y="300" fill="#1B2A4A" font-size="14" font-weight="600">Paga a scadenza</text>
  <text x="480" y="506" text-anchor="middle" fill="#5C6068" font-size="13.5"><tspan fill="#9C7A3C" font-weight="700">4 ·</tspan> A incasso avvenuto ricevi il saldo, al netto delle commissioni.</text>
</svg>
