<svg viewBox="0 0 960 350" xmlns="http://www.w3.org/2000/svg" font-family="'Hanken Grotesk',system-ui,sans-serif">
  <defs>
    <marker id="ah" markerWidth="9" markerHeight="9" refX="6.5" refY="3" orient="auto"><path d="M0,0 L6.5,3 L0,6 Z" fill="#9C7A3C"/></marker>
    <marker id="ahn" markerWidth="9" markerHeight="9" refX="6.5" refY="3" orient="auto"><path d="M0,0 L6.5,3 L0,6 Z" fill="#1B2A4A"/></marker>
  </defs>
  <path d="M108 150 V80 H852 V146" fill="none" stroke="#9C7A3C" stroke-width="1.6" stroke-dasharray="2 5" marker-end="url(#ah)"/>
  <text x="480" y="68" text-anchor="middle" fill="#5C6068" font-size="13.5">Fattura commerciale · scadenza 60–90 gg</text>
  <rect x="16" y="150" width="168" height="100" rx="8" fill="#1B2A4A"/>
  <text x="100" y="194" text-anchor="middle" fill="#fff" font-size="16" font-weight="700">LA TUA AZIENDA</text>
  <text x="100" y="218" text-anchor="middle" fill="#BB9A5C" font-size="12">cedente</text>
  <rect x="400" y="150" width="160" height="100" rx="8" fill="#9C7A3C"/>
  <text x="480" y="192" text-anchor="middle" fill="#fff" font-size="15" font-weight="700">ACQUIRENTE</text>
  <text x="480" y="213" text-anchor="middle" fill="#fff" font-size="11" opacity=".92">aderente alla piattaforma</text>
  <rect x="776" y="150" width="168" height="100" rx="8" fill="#fff" stroke="#1B2A4A" stroke-width="1.5"/>
  <text x="860" y="192" text-anchor="middle" fill="#1B2A4A" font-size="16" font-weight="700">IL TUO CLIENTE</text>
  <text x="860" y="213" text-anchor="middle" fill="#5C6068" font-size="11">debitore ceduto</text>
  <line x1="184" y1="188" x2="394" y2="188" stroke="#1B2A4A" stroke-width="2" marker-end="url(#ahn)"/>
  <circle cx="222" cy="170" r="9" fill="#1B2A4A"/><text x="222" y="174" text-anchor="middle" fill="#fff" font-size="11" font-weight="700">1</text>
  <text x="236" y="174" fill="#1B2A4A" font-size="12" font-weight="600">Cessione del credito</text>
  <line x1="400" y1="212" x2="190" y2="212" stroke="#9C7A3C" stroke-width="2.2" marker-end="url(#ah)"/>
  <circle cx="218" cy="234" r="9" fill="#9C7A3C"/><text x="218" y="238" text-anchor="middle" fill="#fff" font-size="11" font-weight="700">2</text>
  <text x="232" y="232" fill="#9C7A3C" font-size="12" font-weight="700">Pagamento del prezzo</text>
  <text x="232" y="247" fill="#9C7A3C" font-size="10.5">fino al 100% del valore</text>
  <line x1="776" y1="200" x2="566" y2="200" stroke="#1B2A4A" stroke-width="2" marker-end="url(#ahn)"/>
  <circle cx="600" cy="182" r="9" fill="#1B2A4A"/><text x="600" y="186" text-anchor="middle" fill="#fff" font-size="11" font-weight="700">3</text>
  <text x="614" y="186" fill="#1B2A4A" font-size="12" font-weight="600">Pagamento a scadenza</text>
  <text x="480" y="308" text-anchor="middle" fill="#5C6068" font-size="12.5"><tspan fill="#9C7A3C" font-weight="700">Nota ·</tspan> Il prezzo è commisurato al valore del credito alla data di cessione.</text>
</svg>
