<svg viewBox="0 0 960 350" xmlns="http://www.w3.org/2000/svg" font-family="'Hanken Grotesk',system-ui,sans-serif">
  <defs>
    <marker id="ah" markerWidth="9" markerHeight="9" refX="6.5" refY="3" orient="auto"><path d="M0,0 L6.5,3 L0,6 Z" fill="#9C7A3C"/></marker>
    <marker id="ahn" markerWidth="9" markerHeight="9" refX="6.5" refY="3" orient="auto"><path d="M0,0 L6.5,3 L0,6 Z" fill="#1B2A4A"/></marker>
  </defs>
  <path d="M108 150 V80 H852 V146" fill="none" stroke="#9C7A3C" stroke-width="1.6" stroke-dasharray="2 5" marker-end="url(#ah)"/>
  <text x="480" y="68" text-anchor="middle" fill="#5C6068" font-size="13.5">Emetti la fattura · pagamento a 60–90 gg</text>
  <rect x="20" y="150" width="176" height="100" rx="8" fill="#1B2A4A"/>
  <text x="108" y="194" text-anchor="middle" fill="#fff" font-size="17" font-weight="700">LA TUA AZIENDA</text>
  <text x="108" y="218" text-anchor="middle" fill="#BB9A5C" font-size="12">cedente del credito</text>
  <rect x="392" y="150" width="176" height="100" rx="8" fill="#9C7A3C"/>
  <text x="480" y="194" text-anchor="middle" fill="#fff" font-size="16" font-weight="700">PIATTAFORMA</text>
  <text x="480" y="217" text-anchor="middle" fill="#fff" font-size="12" opacity=".92">+ investitori</text>
  <rect x="764" y="150" width="176" height="100" rx="8" fill="#fff" stroke="#1B2A4A" stroke-width="1.5"/>
  <text x="852" y="194" text-anchor="middle" fill="#1B2A4A" font-size="17" font-weight="700">IL TUO CLIENTE</text>
  <text x="852" y="218" text-anchor="middle" fill="#5C6068" font-size="12">debitore</text>
  <line x1="196" y1="188" x2="386" y2="188" stroke="#1B2A4A" stroke-width="2" marker-end="url(#ahn)"/>
  <circle cx="245" cy="170" r="9" fill="#1B2A4A"/><text x="245" y="174" text-anchor="middle" fill="#fff" font-size="11" font-weight="700">1</text>
  <text x="259" y="174" fill="#1B2A4A" font-size="13" font-weight="600">Cedi la fattura</text>
  <line x1="392" y1="212" x2="202" y2="212" stroke="#9C7A3C" stroke-width="2.2" marker-end="url(#ah)"/>
  <circle cx="221" cy="234" r="9" fill="#9C7A3C"/><text x="221" y="238" text-anchor="middle" fill="#fff" font-size="11" font-weight="700">2</text>
  <text x="235" y="232" fill="#9C7A3C" font-size="13" font-weight="700">Anticipo fino al 100%</text>
  <text x="235" y="247" fill="#9C7A3C" font-size="11.5">in 48–72 ore</text>
  <line x1="764" y1="200" x2="574" y2="200" stroke="#1B2A4A" stroke-width="2" marker-end="url(#ahn)"/>
  <circle cx="609" cy="182" r="9" fill="#1B2A4A"/><text x="609" y="186" text-anchor="middle" fill="#fff" font-size="11" font-weight="700">3</text>
  <text x="623" y="186" fill="#1B2A4A" font-size="13" font-weight="600">Paga a scadenza</text>
  <text x="480" y="308" text-anchor="middle" fill="#5C6068" font-size="13"><tspan fill="#9C7A3C" font-weight="700">Nota ·</tspan> L’anticipo è erogato al netto delle commissioni di servizio.</text>
</svg>
