<svg viewBox="0 0 800 600" xmlns="http://www.w3.org/2000/svg">
  <rect width="800" height="600" fill="#101B30"/>
  <g stroke="#BB9A5C" stroke-width="1.1" fill="none" opacity="0.55">
    <circle cx="400" cy="300" r="180"/>
    <ellipse cx="400" cy="300" rx="180" ry="62"/>
    <ellipse cx="400" cy="300" rx="180" ry="120"/>
    <ellipse cx="400" cy="300" rx="70" ry="180"/>
    <ellipse cx="400" cy="300" rx="130" ry="180"/>
    <line x1="220" y1="300" x2="580" y2="300"/>
  </g>
  <g fill="#BB9A5C" stroke="none">
    <circle cx="330" cy="240" r="4"/><circle cx="470" cy="270" r="4"/>
    <circle cx="400" cy="360" r="4"/><circle cx="300" cy="330" r="4"/>
    <circle cx="500" cy="350" r="4"/>
  </g>
  <g stroke="#fff" stroke-width="1.3" fill="none" opacity="0.85">
    <path d="M330 240 Q420 180 470 270" stroke-dasharray="3 5"/>
    <path d="M330 240 Q300 320 300 330" stroke-dasharray="3 5"/>
    <path d="M470 270 Q540 320 500 350" stroke-dasharray="3 5"/>
    <path d="M300 330 Q360 400 400 360" stroke-dasharray="3 5"/>
  </g>
  <text x="400" y="560" text-anchor="middle" font-family="Hanken Grotesk,sans-serif" font-size="13" letter-spacing="4" fill="#9AA3B5">IL MONDO COME MERCATO</text>
</svg>
