<svg viewBox="0 0 560 240" fill="none" xmlns="http://www.w3.org/2000/svg" aria-hidden="true">
  <g stroke="#9C7A3C" stroke-width="1.1" stroke-linejoin="round" stroke-linecap="round" opacity="0.9">
    <line x1="0" y1="220" x2="560" y2="220"/>
    <path d="M8 220 V150 H58 V120 H96 V150 H150 V220"/>
    <line x1="22" y1="165" x2="22" y2="220"/><line x1="40" y1="165" x2="40" y2="220"/>
    <line x1="110" y1="160" x2="110" y2="220"/><line x1="128" y1="160" x2="128" y2="220"/>
    <rect x="70" y="135" width="14" height="14"/>
    <path d="M175 220 C175 150 188 95 200 78 C212 95 225 150 225 220"/>
    <path d="M182 130 L218 130 M180 150 L220 150 M179 175 L221 175 M178 200 L222 200"/>
    <line x1="200" y1="78" x2="200" y2="60"/>
    <path d="M245 220 V128 H300 V128 M300 220 V110 H352 V220"/>
    <line x1="262" y1="145" x2="262" y2="220"/><line x1="282" y1="145" x2="282" y2="220"/>
    <line x1="318" y1="128" x2="318" y2="220"/><line x1="336" y1="128" x2="336" y2="220"/>
    <path d="M378 220 L398 56 L418 220"/>
    <line x1="389" y1="130" x2="407" y2="130"/><line x1="385" y1="165" x2="411" y2="165"/>
    <line x1="398" y1="56" x2="398" y2="40"/>
    <path d="M440 220 V150 H486 V150 M486 220 V96 H506 V96"/>
    <path d="M506 96 V72 H524 V72 L515 56 L506 72 M506 96 V220 H524 V96"/>
    <rect x="509" y="100" width="12" height="14"/>
    <line x1="455" y1="165" x2="455" y2="220"/><line x1="472" y1="165" x2="472" y2="220"/>
    <line x1="540" y1="118" x2="540" y2="220"/><line x1="556" y1="118" x2="540" y2="118"/>
  </g>
</svg>
